<svg width="512" height="512" viewBox="0 0 512 512" fill="none" xmlns="http://www.w3.org/2000/svg">
<g clip-path="url(#clip0_7_2)">
<path opacity="0.5" d="M23.0779 10.832C12.5549 11.1784 9.33288 19.5088 10.1099 25.778C10.9834 32.829 15.4285 36.175 24.3249 37.416C71.4769 42.6018 128.645 55.138 163.795 64.408C114.644 57.4398 70.0019 65.7753 25.0849 74.514C15.8551 76.5172 11.9159 83.4807 12.5249 90.019C13.4647 97.6128 20.3842 103.006 27.9779 102.066C28.0759 102.054 28.1726 102.04 28.2703 102.025C62.7403 97.578 122.263 89.1492 173.76 93.2297C114.517 100.478 65.2603 122.447 36.7703 136.586C30.5365 139.233 26.8128 145.693 27.6437 152.415C30.8405 164.345 41.3907 164.662 51.1737 160.656C106.941 137.835 161.584 129.513 199.014 123.878L204.341 135.394C204.223 135.461 204.102 135.524 203.985 135.592V135.59C168.012 161.225 153.849 200.753 160.918 236.74C168.326 274.466 197.368 307.84 241.834 315.279C253.225 317.14 266.075 318.261 280.703 318.842C356.211 315.752 397.813 381.745 421.393 439.682C424.156 447.232 426.547 454.554 428.182 460.557C429.801 466.498 430.599 472.009 430.601 472.693C430.607 476.024 430.982 479.267 432.001 482.325C432.473 483.746 433.301 485.683 434.718 487.501C436.367 489.617 439.639 492.423 444.518 492.423C448.345 492.423 450.879 491.021 453.047 488.775C454.619 487.146 455.511 485.244 455.889 484.234C456.73 481.985 456.915 479.889 457.038 478.21C457.298 474.577 457.098 470.485 456.654 465.82C455.75 456.451 453.732 444.669 450.798 432.894C443.602 404.009 427.202 366.985 406.966 342.389C439.315 351.699 468.599 386.867 476.764 410.871C477.524 413.104 478.737 415.741 480.839 417.999C481.719 418.942 483.961 420.944 486.948 421.732C489.27 422.345 491.108 422.093 492.932 421.61C494.757 421.124 496.559 420.398 498.277 418.682C502.256 414.704 502.042 408.609 501.97 407.524C501.827 405.124 501.345 402.844 500.738 400.522C499.506 395.813 497.597 390.431 495.223 384.695C490.479 373.234 484.134 360.652 477.658 351.852C454.141 319.906 406.437 295.183 352.878 284.175C339.904 281.509 311.531 277.132 287.322 277.132C288.051 277.132 285.573 277.072 283.079 276.878C280.585 276.695 277.35 276.356 273.871 276.071C266.914 275.501 259.115 274.861 254.99 274.5C216.183 271.112 199.534 242.709 201.019 214.63C202.504 186.554 222.139 159.64 261.907 159.64C273.849 159.64 280.311 160.122 291.014 163.203C301.679 166.273 316.607 172.214 342.482 183.187C353.703 187.948 360.034 191.097 362.298 192.649C365.14 194.598 363.438 192.372 364.376 195.534C365.156 198.16 364.951 205.412 370.869 210.937C374.563 214.388 378.709 215.656 383.555 217.727C388.347 219.775 393.344 221.862 395.861 223.244C406.472 229.458 410.641 232.182 419.707 244.036C422.155 247.256 426.992 247.276 429.467 244.076C438.988 231.789 440.478 232.979 452.633 228.928C458.955 226.874 457.974 217.641 451.36 216.962C444.269 216.17 434.394 211.549 428.7 207.245C427.216 206.121 427.134 205.855 426.367 204.997C428.322 202.451 427.991 198.828 425.604 196.68C421.363 192.877 418.305 187.028 415.759 181.362C415.152 180.011 414.556 178.795 413.977 177.5C413.97 177.46 413.937 177.459 413.937 177.419C413.603 176.385 413.2 175.477 412.833 174.747C412.69 174.449 412.442 174.149 412.281 173.854C412.179 173.671 412.117 173.445 412.025 173.26C411.453 172.174 410.786 171.072 410.033 170.035C410.026 170.018 409.992 170.014 409.992 169.993L409.952 169.911C409.748 169.51 409.589 169.105 409.357 168.724C408.622 167.515 407.698 166.205 406.555 164.737C405.262 163.165 403.73 161.782 402.397 160.239C379.499 130.154 350.587 104.24 318.847 85.0547C316.19 83.458 313.864 82.1497 311.421 81.1934C310.5 80.833 308.574 80.1163 306.287 80.047C305.21 80.0063 302.747 80.1885 300.474 81.4471C297.346 83.1884 295.87 85.3055 295.17 88.6604C295.068 89.1554 295.231 89.596 295.211 90.1031C295.17 90.266 294.975 90.3806 294.957 90.5272C294.835 91.46 295.099 91.6191 295.253 92.0958C295.506 93.7781 295.889 95.1326 295.805 94.9385L295.846 94.9811C296.211 95.8039 296.718 96.5914 296.865 96.8053C297.329 97.4794 297.809 98.0279 298.011 98.248H298.052C298.642 98.8956 299.206 99.4816 299.835 100.072C301.129 101.28 302.781 102.73 304.798 104.443L304.922 104.524L305.002 104.605C327.072 121.462 350.727 142.309 366.952 159.595C339.353 140.159 314.794 132.135 293.881 127.607C287.766 125.969 281.25 124.769 274.553 124.021L274.568 124.017C254.71 121.02 219.647 121.797 216.29 74.027L216.335 52.25C216.343 49.9509 214.938 47.8808 212.799 47.037L193.961 39.6007C125.323 17.0077 74.2008 11.3737 23.0708 10.8197L23.0779 10.832Z" fill="white" stroke="black" stroke-width="20" stroke-linejoin="round"/>
<path fill-rule="evenodd" clip-rule="evenodd" d="M283.034 267.708C276.287 267.708 270.817 273.178 270.817 279.926V496.783C270.817 503.53 276.287 509 283.034 509H348.554C394.752 498.126 437.097 458.942 449.62 412.005L505.714 269.182C503.983 268.242 502 267.708 499.891 267.708H283.034ZM512.001 233.704C511.204 239.681 506.086 244.292 499.891 244.292H283.034C276.287 244.292 270.817 238.822 270.817 232.074V15.2173C270.817 8.46986 276.287 3 283.034 3H499.891C506.086 3 511.204 7.61086 512.001 13.588V233.704ZM0.000976562 496.939C0.0845527 503.614 5.52196 509 12.2173 509H229.074C235.822 509 241.292 503.53 241.292 496.783V279.926C241.292 273.178 235.822 267.708 229.074 267.708H12.2173C5.52198 267.708 0.0845528 273.094 0.000976562 279.769V496.939ZM0.000976562 232.231C0.0845527 238.906 5.52196 244.292 12.2173 244.292H229.074C235.822 244.292 241.292 238.822 241.292 232.074V15.2173C241.292 8.46987 235.822 3 229.074 3H169.567C80.6809 20.3646 0.000976562 110.22 0.000976562 199.995V232.231Z" fill="url(#paint0_linear_7_2)"/>
<path d="M23.0779 10.832C12.5549 11.1784 9.33288 19.5088 10.1099 25.778C10.9834 32.829 15.4285 36.175 24.3249 37.416C71.4769 42.6018 128.645 55.138 163.795 64.408C114.644 57.4398 70.0019 65.7753 25.0849 74.514C15.8551 76.5172 11.9159 83.4807 12.5249 90.019C13.4647 97.6128 20.3842 103.006 27.9779 102.066C28.0759 102.054 28.1726 102.04 28.2703 102.025C62.7403 97.578 122.263 89.1492 173.76 93.2297C114.517 100.478 65.2603 122.447 36.7703 136.586C30.5365 139.233 26.8128 145.693 27.6437 152.415C30.8405 164.345 41.3907 164.662 51.1737 160.656C106.941 137.835 161.584 129.513 199.014 123.878L204.341 135.394C204.223 135.461 204.102 135.524 203.985 135.592V135.59C168.012 161.225 153.849 200.753 160.918 236.74C168.326 274.466 197.368 307.84 241.834 315.279C253.225 317.14 266.075 318.261 280.703 318.842C356.211 315.752 397.813 381.745 421.393 439.682C424.156 447.232 426.547 454.554 428.182 460.557C429.801 466.498 430.599 472.009 430.601 472.693C430.607 476.024 430.982 479.267 432.001 482.325C432.473 483.746 433.301 485.683 434.718 487.501C436.367 489.617 439.639 492.423 444.518 492.423C448.345 492.423 450.879 491.021 453.047 488.775C454.619 487.146 455.511 485.244 455.889 484.234C456.73 481.985 456.915 479.889 457.038 478.21C457.298 474.577 457.098 470.485 456.654 465.82C455.75 456.451 453.732 444.669 450.798 432.894C443.602 404.009 427.202 366.985 406.966 342.389C439.315 351.699 468.599 386.867 476.764 410.871C477.524 413.104 478.737 415.741 480.839 417.999C481.719 418.942 483.961 420.944 486.948 421.732C489.27 422.345 491.108 422.093 492.932 421.61C494.757 421.124 496.559 420.398 498.277 418.682C502.256 414.704 502.042 408.609 501.97 407.524C501.827 405.124 501.345 402.844 500.738 400.522C499.506 395.813 497.597 390.431 495.223 384.695C490.479 373.234 484.134 360.652 477.658 351.852C454.141 319.906 406.437 295.183 352.878 284.175C339.904 281.509 311.531 277.132 287.322 277.132C288.051 277.132 285.573 277.072 283.079 276.878C280.585 276.695 277.35 276.356 273.871 276.071C266.914 275.501 259.115 274.861 254.99 274.5C216.183 271.112 199.534 242.709 201.019 214.63C202.504 186.554 222.139 159.64 261.907 159.64C273.849 159.64 280.311 160.122 291.014 163.203C301.679 166.273 316.607 172.214 342.482 183.187C353.703 187.948 360.034 191.097 362.298 192.649C365.14 194.598 363.438 192.372 364.376 195.534C365.156 198.16 364.951 205.412 370.869 210.937C374.563 214.388 378.709 215.656 383.555 217.727C388.347 219.775 393.344 221.862 395.861 223.244C406.472 229.458 410.641 232.182 419.707 244.036C422.155 247.256 426.992 247.276 429.467 244.076C438.988 231.789 440.478 232.979 452.633 228.928C458.955 226.874 457.974 217.641 451.36 216.962C444.269 216.17 434.394 211.549 428.7 207.245C427.216 206.121 427.134 205.855 426.367 204.997C428.322 202.451 427.991 198.828 425.604 196.68C421.363 192.877 418.305 187.028 415.759 181.362C415.152 180.011 414.556 178.795 413.977 177.5C413.97 177.46 413.937 177.459 413.937 177.419C413.603 176.385 413.2 175.477 412.833 174.747C412.69 174.449 412.442 174.149 412.281 173.854C412.179 173.671 412.117 173.445 412.025 173.26C411.453 172.174 410.786 171.072 410.033 170.035C410.026 170.018 409.992 170.014 409.992 169.993L409.952 169.911C409.748 169.51 409.589 169.105 409.357 168.724C408.622 167.515 407.698 166.205 406.555 164.737C405.262 163.165 403.73 161.782 402.397 160.239C379.499 130.154 350.587 104.24 318.847 85.0547C316.19 83.458 313.864 82.1497 311.421 81.1934C310.5 80.833 308.574 80.1163 306.287 80.047C305.21 80.0063 302.747 80.1885 300.474 81.4471C297.346 83.1884 295.87 85.3055 295.17 88.6604C295.068 89.1554 295.231 89.596 295.211 90.1031C295.17 90.266 294.975 90.3806 294.957 90.5272C294.835 91.46 295.099 91.6191 295.253 92.0958C295.506 93.7781 295.889 95.1326 295.805 94.9385L295.846 94.9811C296.211 95.8039 296.718 96.5914 296.865 96.8053C297.329 97.4794 297.809 98.0279 298.011 98.248H298.052C298.642 98.8956 299.206 99.4816 299.835 100.072C301.129 101.28 302.781 102.73 304.798 104.443L304.922 104.524L305.002 104.605C327.072 121.462 350.727 142.309 366.952 159.595C339.353 140.159 314.794 132.135 293.881 127.607C287.766 125.969 281.25 124.769 274.553 124.021L274.568 124.017C254.71 121.02 219.647 121.797 216.29 74.027L216.335 52.25C216.343 49.9509 214.938 47.8808 212.799 47.037L193.961 39.6007C125.323 17.0077 74.2008 11.3737 23.0708 10.8197L23.0779 10.832Z" fill="white"/>
</g>
<defs>
<linearGradient id="paint0_linear_7_2" x1="357.618" y1="135.779" x2="100.268" y2="377.636" gradientUnits="userSpaceOnUse">
<stop stop-color="#249EFF"/>
<stop offset="1" stop-color="#2777FF"/>
</linearGradient>
<clipPath id="clip0_7_2">
<rect width="512" height="512" fill="white"/>
</clipPath>
</defs>
</svg>
